<svg xmlns="http://www.w3.org/2000/svg" enable-background="new 0 0 32 32" viewBox="0 0 32 32" id="bat">
  <g>
    <path fill="#424242" d="M6.3097,25.5546c0.7715-1.1676,1.0008-2.5854,0.6777-3.8886c-0.1981-0.8653-0.636-1.6784-1.3136-2.3457
				c-0.3962-0.4066-0.8549-0.7193-1.3449-0.9591c0.1355-0.1043,0.2503-0.219,0.3754-0.3336c1.9391-1.9391,1.9286-5.0771,0-7.0161
				l-0.0417-0.0313c2.992-4.3056-2.2518-8.5695-2.2518-8.5695s1.4074,0.1876,3.211,0.9695
				c1.1884,1.6993,2.4395,4.5141,0.3544,7.1204l0.0313,0.0417c1.8035,2.0537,1.6055,5.1917-0.4587,6.9953
				c-0.1251,0.1147-0.2606,0.219-0.3962,0.3128c0.4795,0.2711,0.907,0.6151,1.2823,1.0425c0.6255,0.7089,1.0113,1.5533,1.1468,2.429
				C7.8423,22.8232,7.4044,24.3975,6.3097,25.5546z"></path>
    <path fill="#212121" d="M17.7566,18.7262c-0.3544-0.0312-0.7089-0.0417-1.0738-0.0417l1.8453-1.8453
				c1.1572-1.1572,0.7193-2.6375,0-3.3569c-0.146-0.146-0.3024-0.2711-0.4796-0.3649c-0.907-0.5421-2.0955-0.417-2.8774,0.3649
				l-0.8131,0.8131l-1.0322,1.0321C13.2842,7.9778,8.8222,4.746,5.6217,3.3803c1.1884,1.6993,2.4395,4.5141,0.3544,7.1204
				l0.0313,0.0417c1.8035,2.0537,1.6055,5.1917-0.4587,6.9953c-0.1251,0.1147-0.2606,0.219-0.3962,0.3128
				c0.4795,0.2711,0.907,0.6151,1.2823,1.0425c0.6255,0.7089,1.0113,1.5533,1.1468,2.429c0.2606,1.5012-0.1773,3.0754-1.2719,4.2326
				c-0.0104,0.0209-0.0104,0.0209-0.0209,0.0313c-0.0312,0.0521-0.0625,0.0939-0.0938,0.1355
				c-0.1564,0.219-0.3336,0.4274-0.5213,0.6151c1.2718-1.2718,3.0546-1.7097,4.6705-1.3135
				c0.8653,0.1981,1.6784,0.6359,2.3457,1.3135c0.4066,0.3962,0.7193,0.8549,0.9591,1.3449
				c0.0313-0.0417,0.0625-0.073,0.0939-0.1043c0.073-0.0938,0.1564-0.1772,0.2398-0.271c1.9391-1.9391,5.0771-1.9287,7.0162,0
				l0.0312,0.0417c3.7531-2.6063,7.4749,1.0425,8.3715,2.0225c0.0938,0.1042,0.1563,0.1876,0.1876,0.219
				C29.5267,29.1514,28.0255,19.4143,17.7566,18.7262z"></path>
    <path fill="none" stroke="#000" stroke-linecap="round" stroke-linejoin="round" stroke-miterlimit="10" stroke-width=".5" d="M10.1665,6.5359C8.7383,4.976,7.0537,3.9913,5.6217,3.3803c-1.8036-0.7819-3.211-0.9695-3.211-0.9695
			s5.2438,4.2639,2.2518,8.5695l0.0417,0.0313c1.9286,1.9391,1.9391,5.0771,0,7.0161c-0.1251,0.1147-0.2398,0.2293-0.3754,0.3336
			c0.49,0.2398,0.9487,0.5525,1.3449,0.9591c0.6776,0.6672,1.1155,1.4804,1.3136,2.3457c0.3232,1.3032,0.0938,2.721-0.6777,3.8886
			c-0.0104,0.0209-0.0104,0.0209-0.0209,0.0313c-0.0312,0.0521-0.0625,0.0939-0.0938,0.1355
			c-0.1564,0.219-0.3336,0.4274-0.5213,0.6151c1.2718-1.2718,3.0546-1.7097,4.6705-1.3135
			c0.8653,0.1981,1.6784,0.6359,2.3457,1.3135c0.4066,0.3962,0.7193,0.8549,0.9591,1.3449c0.0313-0.0417,0.0625-0.073,0.0939-0.1043
			c0.073-0.0938,0.1564-0.1772,0.2398-0.271c1.9391-1.9391,5.0771-1.9287,7.0162,0l0.0312,0.0417
			c3.7531-2.6063,7.4749,1.0425,8.3715,2.0225c0.0938,0.1042,0.1563,0.1876,0.1876,0.219
			c-0.0625-0.4379-1.5638-10.175-11.8326-10.8631c-0.3544-0.0312-0.7089-0.0417-1.0738-0.0417l1.8453-1.8453
			c1.1572-1.1572,0.7193-2.6375,0-3.3569c-0.146-0.146-0.3024-0.2711-0.4796-0.3649c-0.907-0.5421-2.0955-0.417-2.8774,0.3649
			l-0.8131,0.8131l-1.0322,1.0321c-0.0155-2.7305-0.6411-4.8926-1.5854-6.6019"></path>
    <path fill="red" d="M6.2889,25.5859c-0.0312,0.0521-0.0625,0.0939-0.0938,0.1355c-0.0834,0.0521-0.1564,0.1147-0.2294,0.1772
			C6.0804,25.7945,6.1846,25.6902,6.2889,25.5859z"></path>
    <line x1="18.53" x2="22.104" y1="16.84" y2="13.265" fill="none" stroke="#000" stroke-linecap="round" stroke-linejoin="round" stroke-miterlimit="10" stroke-width=".5"></line>
    <line x1="15.171" x2="18.745" y1="13.481" y2="9.906" fill="none" stroke="#000" stroke-linecap="round" stroke-linejoin="round" stroke-miterlimit="10" stroke-width=".5"></line>
  </g>
</svg>
